<svg width="40" height="39" viewBox="0 0 40 39" fill="none" xmlns="http://www.w3.org/2000/svg">
<path d="M13.5699 14.3557H16.1414H13.5699ZM23.856 24.6417H26.4275H23.856ZM26.4275 13.0699L13.5699 25.9275L26.4275 13.0699ZM18.2012 2.24383L15.298 5.14193C14.8222 5.61859 14.1766 5.88682 13.5031 5.88767H8.9309C8.25708 5.88767 7.61085 6.15535 7.13438 6.63181C6.65792 7.10828 6.39024 7.7545 6.39024 8.42833V13.0005C6.38939 13.674 6.12116 14.3196 5.6445 14.7954L2.74383 17.7038C2.26755 18.1802 2 18.8263 2 19.5C2 20.1737 2.26755 20.8198 2.74383 21.2962L5.64964 24.1994C5.88531 24.4352 6.07224 24.715 6.19976 25.023C6.32727 25.331 6.39287 25.661 6.39281 25.9944V30.5665C6.39281 31.9706 7.52942 33.1072 8.93347 33.1072H13.5056C14.1794 33.1072 14.8248 33.3746 15.3006 33.8529L18.2064 36.7562C18.6828 37.2324 19.3289 37.5 20.0026 37.5C20.6762 37.5 21.3223 37.2324 21.7988 36.7562L24.702 33.8504C25.1783 33.3746 25.8238 33.1074 26.4969 33.1072H31.0691C31.7429 33.1072 32.3891 32.8395 32.8656 32.363C33.3421 31.8866 33.6098 31.2404 33.6098 30.5665V25.9944C33.6098 25.3206 33.8772 24.6752 34.3555 24.1994L37.2587 21.2936C37.735 20.8172 38.0026 20.1711 38.0026 19.4974C38.0026 18.8238 37.735 18.1777 37.2587 17.7012L34.3529 14.798C33.8772 14.3217 33.6099 13.6762 33.6098 13.0031V8.4309C33.6098 7.75708 33.3421 7.11085 32.8656 6.63438C32.3891 6.15792 31.7429 5.89024 31.0691 5.89024H26.4969C25.8234 5.88939 25.1778 5.62116 24.702 5.1445L21.7936 2.24383C21.3172 1.76755 20.6711 1.5 19.9974 1.5C19.3238 1.5 18.6777 1.76755 18.2012 2.24383V2.24383Z" stroke="#2A7BE4" stroke-width="3"/>
</svg>
