<svg width="36" height="37" viewBox="0 0 36 37" fill="none" xmlns="http://www.w3.org/2000/svg">
<path fill-rule="evenodd" clip-rule="evenodd" d="M7.24634 15.5003C7.24634 15.5003 8.05882 15.3903 9.23771 15.0743C12.3462 14.2413 17.9998 11.9803 17.9998 6.54242C17.9998 5.74898 17.8441 4.96331 17.5418 4.23028C17.2395 3.49724 16.7964 2.83118 16.2377 2.27014C15.6791 1.70909 15.0159 1.26405 14.286 0.960414C13.5561 0.656779 12.7738 0.5005 11.9838 0.5005H6.09333C5.29686 0.490209 4.50628 0.638872 3.76747 0.937864C3.02866 1.23686 2.35633 1.68022 1.78948 2.24224C1.22263 2.80426 0.772556 3.47374 0.465369 4.21183C0.158182 4.94993 0 5.74194 0 6.54192C0 7.34189 0.158182 8.1339 0.465369 8.872C0.772556 9.61009 1.22263 10.2796 1.78948 10.8416C2.35633 11.4036 3.02866 11.847 3.76747 12.146C4.50628 12.445 5.29686 12.5936 6.09333 12.5833H7.24634V15.5003ZM9.23771 10.5834H6.09333C5.55956 10.5918 5.02945 10.4935 4.53387 10.2942C4.03829 10.0949 3.58714 9.79851 3.2067 9.42239C2.82626 9.04627 2.52413 8.5979 2.3179 8.10337C2.11167 7.60885 2.00547 7.07806 2.00547 6.54192C2.00547 6.00577 2.11167 5.47498 2.3179 4.98046C2.52413 4.48594 2.82626 4.03756 3.2067 3.66144C3.58714 3.28532 4.03829 2.98898 4.53387 2.78966C5.02945 2.59034 5.55956 2.49204 6.09333 2.50047H11.9838C12.5123 2.50047 13.0357 2.60502 13.5239 2.80815C14.0122 3.01127 14.4559 3.309 14.8296 3.68433C15.2033 4.05966 15.4998 4.50524 15.702 4.99563C15.9043 5.48602 16.0084 6.01162 16.0084 6.54242C16.0084 9.12538 14.2082 10.8454 11.7578 12.0323C10.9445 12.4204 10.1018 12.7431 9.23771 12.9973V10.5834ZM8.54073 26.5001C10.7412 26.5001 12.5235 24.7102 12.5235 22.5002C12.5235 20.2902 10.7412 18.5002 8.54073 18.5002C6.34026 18.5002 4.55798 20.2902 4.55798 22.5002C4.55798 24.7102 6.34026 26.5001 8.54073 26.5001ZM10.5321 22.5002C10.5321 23.0306 10.3223 23.5393 9.94884 23.9144C9.57539 24.2895 9.06887 24.5002 8.54073 24.5002C8.01258 24.5002 7.50607 24.2895 7.13262 23.9144C6.75916 23.5393 6.54936 23.0306 6.54936 22.5002C6.54936 21.9698 6.75916 21.4611 7.13262 21.086C7.50607 20.7109 8.01258 20.5002 8.54073 20.5002C9.06887 20.5002 9.57539 20.7109 9.94884 21.086C10.3223 21.4611 10.5321 21.9698 10.5321 22.5002ZM0.0773935 32.7671C0.0773935 29.9291 5.71597 28.5001 8.54073 28.5001C11.3655 28.5001 17.0041 29.9301 17.0041 32.7671V36.5H0.0773935V32.7671ZM2.06877 34.5V32.7671C2.06877 32.757 2.06877 32.7371 2.09465 32.6871C2.12652 32.6251 2.1992 32.5161 2.35652 32.3701C2.6841 32.0651 3.23272 31.7321 3.99243 31.4251C5.51583 30.8101 7.37777 30.5001 8.54073 30.5001C9.70269 30.5001 11.5666 30.8101 13.089 31.4251C13.8477 31.7321 14.3974 32.0651 14.7249 32.3701C14.8823 32.5161 14.9549 32.6251 14.9868 32.6861C15.0127 32.7361 15.0127 32.758 15.0127 32.7661V34.5H2.06877ZM31.4415 22.5002C31.4415 24.7102 29.6592 26.5001 27.4588 26.5001C25.2583 26.5001 23.476 24.7102 23.476 22.5002C23.476 20.2902 25.2583 18.5002 27.4588 18.5002C29.6592 18.5002 31.4415 20.2902 31.4415 22.5002ZM27.4588 24.5002C27.9869 24.5002 28.4934 24.2895 28.8669 23.9144C29.2403 23.5393 29.4501 23.0306 29.4501 22.5002C29.4501 21.9698 29.2403 21.4611 28.8669 21.086C28.4934 20.7109 27.9869 20.5002 27.4588 20.5002C26.9306 20.5002 26.4241 20.7109 26.0507 21.086C25.6772 21.4611 25.4674 21.9698 25.4674 22.5002C25.4674 23.0306 25.6772 23.5393 26.0507 23.9144C26.4241 24.2895 26.9306 24.5002 27.4588 24.5002ZM18.9954 32.7671C18.9954 29.9291 24.634 28.5001 27.4588 28.5001C30.2835 28.5001 35.9221 29.9301 35.9221 32.7671V36.5H18.9954V32.7671ZM20.9868 34.5V32.7671C20.9868 32.757 20.9868 32.7371 21.0127 32.6871C21.0446 32.6251 21.1172 32.5161 21.2736 32.3701C21.6021 32.0651 22.1518 31.7321 22.9105 31.4251C24.4339 30.8101 26.2958 30.5001 27.4588 30.5001C28.6207 30.5001 30.4847 30.8101 32.0071 31.4251C32.7658 31.7321 33.3154 32.0651 33.644 32.3701C33.8003 32.5161 33.873 32.6251 33.9049 32.6861C33.9307 32.7361 33.9307 32.758 33.9307 32.7661V34.5H20.9868ZM27.5583 16.0063C28.7233 16.3743 29.5497 16.5003 29.5497 16.5003V13.5833H29.9062C30.7026 13.5936 31.4932 13.4449 32.232 13.146C32.9708 12.847 33.6432 12.4036 34.21 11.8416C34.7769 11.2796 35.2269 10.6101 35.5341 9.87198C35.8413 9.13389 35.9995 8.34188 35.9995 7.5419C35.9995 6.74193 35.8413 5.94991 35.5341 5.21182C35.2269 4.47373 34.7769 3.80425 34.21 3.24223C33.6432 2.68021 32.9708 2.23684 32.232 1.93785C31.4932 1.63886 30.7026 1.49019 29.9062 1.50049H26.0071C24.4115 1.50049 22.8814 2.13704 21.7532 3.27012C20.6249 4.4032 19.9911 5.93999 19.9911 7.5424C19.9911 12.8383 24.7575 15.1223 27.5583 16.0063ZM29.9062 11.5833H27.5583V13.8963C26.9261 13.6695 26.3117 13.3954 25.7203 13.0763C23.6453 11.9453 21.9825 10.2484 21.9825 7.5414C21.9828 6.46959 22.4069 5.44176 23.1616 4.68396C23.9163 3.92617 24.9399 3.50046 26.0071 3.50046H29.9062C30.4399 3.49203 30.9701 3.59033 31.4656 3.78965C31.9612 3.98896 32.4124 4.28531 32.7928 4.66143C33.1732 5.03755 33.4754 5.48592 33.6816 5.98045C33.8878 6.47497 33.994 7.00576 33.994 7.5419C33.994 8.07805 33.8878 8.60884 33.6816 9.10336C33.4754 9.59788 33.1732 10.0463 32.7928 10.4224C32.4124 10.7985 31.9612 11.0948 31.4656 11.2942C30.9701 11.4935 30.4399 11.5918 29.9062 11.5833Z" fill="#2A7BE4"/>
</svg>
