<svg width="58" height="57" viewBox="0 0 58 57" fill="none" xmlns="http://www.w3.org/2000/svg">
<path d="M29 0.125C23.4374 0.125 17.9997 1.7745 13.3746 4.86492C8.74947 7.95533 5.14462 12.3479 3.0159 17.487C0.887186 22.6262 0.330217 28.2812 1.41543 33.7369C2.50064 39.1926 5.17928 44.204 9.11263 48.1374C13.046 52.0707 18.0574 54.7494 23.5131 55.8346C28.9688 56.9198 34.6238 56.3628 39.763 54.2341C44.9022 52.1054 49.2947 48.5005 52.3851 43.8754C55.4755 39.2503 57.125 33.8126 57.125 28.25C57.1101 20.7954 54.1422 13.6503 48.871 8.37904C43.5997 3.1078 36.4547 0.139865 29 0.125ZM29 54.125C23.8824 54.125 18.8798 52.6075 14.6246 49.7643C10.3695 46.9211 7.05305 42.88 5.09463 38.1519C3.13621 33.4239 2.6238 28.2213 3.62219 23.202C4.62059 18.1828 7.08494 13.5723 10.7036 9.95361C14.3223 6.33493 18.9328 3.87057 23.9521 2.87218C28.9713 1.87379 34.1739 2.3862 38.9019 4.34462C43.63 6.30303 47.6711 9.6195 50.5143 13.8746C53.3575 18.1297 54.875 23.1324 54.875 28.25C54.8676 35.1102 52.1391 41.6873 47.2882 46.5382C42.4373 51.3891 35.8602 54.1176 29 54.125ZM38.6188 27.3219L25.1188 18.3219C24.9496 18.2092 24.753 18.1445 24.55 18.1346C24.3469 18.1246 24.145 18.1699 23.9656 18.2656C23.7859 18.3591 23.6355 18.5006 23.5313 18.6744C23.427 18.8481 23.3729 19.0474 23.375 19.25V37.25C23.3729 37.4526 23.427 37.6519 23.5313 37.8256C23.6355 37.9994 23.7859 38.1409 23.9656 38.2344C24.1312 38.32 24.3137 38.3681 24.5 38.375C24.7223 38.3791 24.9397 38.3099 25.1188 38.1781L38.6188 29.1781C38.7756 29.0793 38.9049 28.9424 38.9945 28.7801C39.0841 28.6178 39.1311 28.4354 39.1311 28.25C39.1311 28.0646 39.0841 27.8822 38.9945 27.7199C38.9049 27.5576 38.7756 27.4207 38.6188 27.3219ZM25.625 35.1406V21.3594L35.975 28.25L25.625 35.1406Z" fill="#F9FAFD"/>
</svg>
