<svg width="36" height="37" viewBox="0 0 36 37" fill="none" xmlns="http://www.w3.org/2000/svg">
<path d="M17.9291 0.50014C16.3127 0.504618 14.7044 0.727895 13.1479 1.16389L14.0141 3.25639C17.3786 2.36555 20.9429 2.60845 24.1555 3.94749C27.368 5.28654 30.0497 7.64708 31.7854 10.6638C33.5212 13.6805 34.2142 17.1852 33.7574 20.6355C33.3006 24.0859 31.7193 27.2894 29.2582 29.7505C26.7972 32.2115 23.5936 33.7928 20.1433 34.2497C16.693 34.7065 13.1883 34.0134 10.1715 32.2777C7.15482 30.5419 4.79429 27.8603 3.45524 24.6477C2.11619 21.4352 1.8733 17.8709 2.76414 14.5064L0.671635 13.6289C-0.349514 17.2615 -0.203229 21.1232 1.08982 24.6681C2.38286 28.2131 4.75727 31.262 7.87747 33.384C10.9977 35.5061 14.7058 36.5938 18.4779 36.4937C22.25 36.3935 25.8952 35.1104 28.8984 32.8257C31.9015 30.541 34.1107 27.3703 35.2138 23.7618C36.3168 20.1532 36.2579 16.2892 35.0454 12.7159C33.8328 9.14261 31.528 6.04075 28.4566 3.8487C25.3851 1.65665 21.7025 0.485284 17.9291 0.50014Z" fill="#2A7BE4"/>
<path d="M6.06049 15.9123C5.49899 18.478 5.78316 21.1565 6.8705 23.5472C7.95783 25.9379 9.7899 27.9124 12.0927 29.1753C14.3955 30.4382 17.0453 30.9217 19.6457 30.5534C22.2461 30.1852 24.6575 28.985 26.5191 27.1324C28.3807 25.2797 29.5925 22.8742 29.9733 20.2756C30.3541 17.677 29.8834 15.0249 28.6316 12.7161C27.3799 10.4072 25.4143 8.5656 23.0288 7.46672C20.6434 6.36785 17.9663 6.07074 15.398 6.61984L16.0955 8.37484C18.2806 7.96573 20.5394 8.26794 22.5401 9.23709C24.5408 10.2062 26.1782 11.7913 27.2117 13.7595C28.2453 15.7278 28.6206 17.9755 28.2826 20.1728C27.9446 22.37 26.9111 24.401 25.3338 25.9677C23.7564 27.5343 21.7184 28.5539 19.5189 28.877C17.3194 29.2 15.0743 28.8094 13.1131 27.7625C11.152 26.7155 9.5781 25.0675 8.62259 23.0602C7.66708 21.0529 7.38026 18.7921 7.80424 16.6098L6.06049 15.9123Z" fill="#2A7BE4"/>
<path d="M17.9295 23.101C16.8018 23.0843 15.7197 22.653 14.8897 21.8894C14.0597 21.1258 13.5399 20.0834 13.4295 18.961L11.5957 18.196V18.4997C11.5958 19.7687 11.973 21.0089 12.6794 22.063C13.3858 23.1171 14.3895 23.9375 15.5631 24.4199C16.7368 24.9024 18.0273 25.0251 19.2708 24.7726C20.5143 24.5201 21.6548 23.9037 22.5472 23.0017C23.4397 22.0997 24.044 20.9528 24.2833 19.7067C24.5226 18.4605 24.3862 17.1714 23.8913 16.003C23.3965 14.8345 22.5655 13.8395 21.504 13.1443C20.4425 12.4491 19.1983 12.0851 17.9295 12.0985H17.6595L18.4132 13.9997C19.5376 14.1703 20.5583 14.7531 21.2766 15.6349C21.9949 16.5166 22.3594 17.6341 22.299 18.7698C22.2386 19.9054 21.7578 20.978 20.9501 21.7786C20.1424 22.5793 19.0656 23.0506 17.9295 23.101Z" fill="#2A7BE4"/>
<path d="M6.9046 13.2577C7.00845 13.3637 7.14998 13.4243 7.29835 13.4264H11.4046L17.4458 19.4677C17.6577 19.681 17.9456 19.8015 18.2462 19.8025C18.5469 19.8036 18.8356 19.6852 19.049 19.4733C19.2623 19.2615 19.3827 18.9736 19.3838 18.6729C19.3849 18.3723 19.2664 18.0835 19.0546 17.8702L12.9008 11.7502V7.82394C12.8987 7.67557 12.8381 7.53404 12.7321 7.43019L6.44335 1.14144C6.36473 1.06435 6.26521 1.01204 6.15714 0.990977C6.04906 0.969916 5.93718 0.981036 5.83537 1.02296C5.73356 1.06488 5.64629 1.13577 5.58438 1.22682C5.52247 1.31787 5.48865 1.42509 5.4871 1.53519V6.03519H1.0546C0.944503 6.03674 0.837282 6.07056 0.746228 6.13247C0.655174 6.19438 0.584292 6.28165 0.542369 6.38346C0.500446 6.48528 0.489325 6.59715 0.510386 6.70523C0.531447 6.8133 0.583764 6.91282 0.660849 6.99144L6.9046 13.2577Z" fill="#2A7BE4"/>
</svg>
