<svg width="30" height="24" viewBox="0 0 30 24" fill="none" xmlns="http://www.w3.org/2000/svg">
<path d="M26 11H29V11.5H26H25V12.5V15.5H24.5V12.5V11.5H23.5H20.5V11H23.5H24.5V10V7H25V10V11H26ZM29.2895 11.0461C29.2894 11.0461 29.2877 11.0454 29.2847 11.0439C29.2881 11.0453 29.2896 11.0461 29.2895 11.0461ZM29.3054 11.4661C29.3053 11.4661 29.3051 11.4662 29.3049 11.4662L29.3088 11.4648C29.3087 11.4648 29.3076 11.4653 29.3054 11.4661ZM20.1012 11.4918C20.1012 11.4918 20.1022 11.4919 20.104 11.4923L20.1012 11.4918ZM24.5353 6.69124C24.5353 6.69124 24.5348 6.69257 24.5338 6.69508L24.5339 6.69456C24.5347 6.69231 24.5352 6.69124 24.5353 6.69124ZM24.9539 6.7105C24.9539 6.71031 24.9547 6.7118 24.956 6.71519C24.9546 6.7123 24.9539 6.71067 24.9539 6.7105ZM15.5 6C15.5 8.77076 13.2341 11 10.5 11C7.72416 11 5.5 8.77584 5.5 6C5.5 3.26595 7.72924 1 10.5 1C13.229 1 15.5 3.27103 15.5 6ZM13.875 14.5H14.6719C17.5883 14.5 20 16.9117 20 19.8281V21.75C20 22.4498 19.4301 23 18.75 23H2.25C1.53666 23 1 22.4633 1 21.75V19.8281C1 16.902 3.37443 14.5 6.28125 14.5H7.07812C7.60337 14.5 8.01377 14.6329 8.52912 14.8168C8.55787 14.8271 8.58717 14.8376 8.61704 14.8483C9.10261 15.0227 9.73559 15.25 10.5 15.25C11.2873 15.25 12.053 15.0105 12.623 14.8268C12.6756 14.8099 12.7263 14.7935 12.7754 14.7776C13.0149 14.7 13.2171 14.6345 13.4089 14.5831C13.6409 14.5208 13.7862 14.5 13.875 14.5Z" stroke="#5E6E82" stroke-width="2"/>
</svg>
